#!OML:ASF I:\Actors\actors\Patient Classification 2\Patient 1\Session 1\actor1.ASF
:FULLY-SPECIFIED
:DEGREES
904
root -0.371454 18.8477 3.78004 13.1982 -2.09512 -1.28647
lowerback 39.7233 1.3938 -4.18364
upperback 8.32664 -0.270471 -2.24834
thorax -9.96335 -0.0484534 -0.121409
lowerneck -25.1634 0.491616 2.28669
upperneck 24.4947 -0.525083 1.02448
head 12.2772 0.129123 -0.0835301
rclavicle 1.59028e-014 2.8625e-014
rhumerus 13.0527 35.4435 -72.0204
rradius 94.1875
rwrist -19.6894
rhand -27.9206 -15.2809
rfingers 7.12502
rthumb -1.30922 314.743
lclavicle 1.59028e-014 2.8625e-014
lhumerus 14.9418 -32.451 78.3942
lradius 72.7728
lwrist 23.0866
lhand -27.5434 -68.153
lfingers 7.12502
lthumb -0.94492 -38.1753
rfemur 0 0 0
rtibia 0
rfoot 0 0
rtoes 0
lfemur -27.753 2.60276 -13.3873
ltibia 26.1839
lfoot -13.6305 9.60242
ltoes -55.2674
905
root -0.37034 18.8472 3.77885 13.1682 -2.09138 -1.31587
lowerback 39.8101 1.33088 -4.24027
upperback 8.36463 -0.372675 -2.24426
thorax -9.94543 -0.0946096 -0.0459741
lowerneck -25.2454 0.611978 2.40457
upperneck 24.3601 -0.351621 0.852091
head 12.2402 0.191513 -0.138198
rclavicle 2.38542e-015 5.56597e-015
rhumerus 13.1857 35.89 -71.9532
rradius 94.5273
rwrist -19.5576
rhand -28.1233 -15.0843
rfingers 7.12502
rthumb -1.50499 314.941
lclavicle 2.38542e-015 5.56597e-015
lhumerus 14.8762 -32.0655 78.412
lradius 72.9265
lwrist 23.1925
lhand -27.5853 -68.5699
lfingers 7.12502
lthumb -0.985362 -38.5924
rfemur 0 0 0
rtibia 0
rfoot 0 0
rtoes 0
lfemur -27.7449 2.65828 -13.3733
ltibia 26.2197
lfoot -13.625 9.55766
ltoes -55.2451
906
root -0.370122 18.8461 3.77696 13.1581 -2.10524 -1.30813
lowerback 39.9174 1.26437 -4.27445
upperback 8.45747 -0.478994 -2.3143
thorax -9.87327 -0.143273 -0.0599954
lowerneck -25.3328 0.707466 2.55871
upperneck 24.0116 -0.243441 0.742506
head 12.1208 0.234931 -0.186497
rclavicle 0 -1.82882e-014
rhumerus 13.1248 36.021 -72.3338
rradius 95.0434
rwrist -18.7439
rhand -28.3692 -14.3175
rfingers 7.12502
rthumb -1.74252 315.71
lclavicle 0 -1.82882e-014
lhumerus 14.9096 -31.772 78.1989
lradius 73.3048
lwrist 23.0744
lhand -27.4154 -68.7245
lfingers 7.12502
lthumb -0.821269 -38.7463
rfemur 0 0 0
rtibia 0
rfoot 0 0
rtoes 0
lfemur -27.7556 2.71121 -13.3992
ltibia 26.2532
lfoot -13.6229 9.53566
ltoes -55.2664
907
root -0.371414 18.8449 3.77472 13.2033 -2.13786 -1.28512
lowerback 39.9753 1.23229 -4.34072
upperback 8.5512 -0.552636 -2.38165
thorax -9.78392 -0.177134 -0.0677526
lowerneck -25.3806 0.741438 2.59487
upperneck 23.7156 -0.215689 0.771509
head 12.0148 0.25129 -0.176829
rclavicle 0 -1.90833e-014
rhumerus 12.7812 35.8135 -73.2929
rradius 95.3881
rwrist -17.4989
rhand -28.2229 -13.6903
rfingers 7.12502
rthumb -1.60115 316.336
lclavicle 0 -1.90833e-014
lhumerus 15.1074 -31.5698 77.9119
lradius 73.4421
lwrist 22.8799
lhand -27.0995 -68.8765
lfingers 7.12502
lthumb -0.516224 -38.8974
rfemur 0 0 0
rtibia 0
rfoot 0 0
rtoes 0
lfemur -27.8253 2.79255 -13.4398
ltibia 26.2724
lfoot -13.5866 9.50369
ltoes -55.3431
908
root -0.372674 18.8448 3.77302 13.2855 -2.1796 -1.24882
lowerback 40.0061 1.20638 -4.44251
upperback 8.5717 -0.632389 -2.43426
thorax -9.76719 -0.211741 -0.0388026
lowerneck -25.3019 0.779354 2.60311
upperneck 23.5936 -0.168713 0.797339
head 11.953 0.274641 -0.160643
rclavicle -1.66979e-014 -5.1684e-014
rhumerus 13.1177 35.9622 -73.2203
rradius 95.263
rwrist -17.2987
rhand -28.1707 -13.9629
rfingers 7.12502
rthumb -1.55074 316.063
lclavicle -1.66979e-014 -5.1684e-014
lhumerus 15.3107 -31.413 77.6471
lradius 73.3857
lwrist 22.8382
lhand -27.0843 -68.9775
lfingers 7.12502
lthumb -0.501466 -38.9983
rfemur 0 0 0
rtibia 0
rfoot 0 0
rtoes 0
lfemur -27.9175 2.86855 -13.49
ltibia 26.2746
lfoot -13.5634 9.45535
ltoes -55.3269
909
root -0.372759 18.8449 3.77022 13.359 -2.21878 -1.2324
lowerback 40.082 1.16712 -4.53016
upperback 8.5412 -0.727731 -2.48351
thorax -9.82256 -0.251879 -0.00744887
lowerneck -25.1755 0.827412 2.61039
upperneck 23.5852 -0.106125 0.819016
head 11.9265 0.305375 -0.143255
rclavicle -7.95139e-015 -2.94201e-014
rhumerus 13.4636 36.2222 -72.9438
rradius 95.0075
rwrist -17.9245
rhand -28.1218 -14.6282
rfingers 7.12502
rthumb -1.50359 315.397
lclavicle -7.95139e-015 -2.94201e-014
lhumerus 15.5257 -31.2377 77.431
lradius 73.2193
lwrist 22.9949
lhand -27.2212 -68.7692
lfingers 7.12502
lthumb -0.633746 -38.7904
rfemur 0 0 0
rtibia 0
rfoot 0 0
rtoes 0
lfemur -27.9861 2.87023 -13.4997
ltibia 26.2631
lfoot -13.576 9.45355
ltoes -55.1205
